<!--?xml version="1.0" encoding="UTF-8"?-->
<svg width="100%" height="100%" viewBox="0 0 40 14" version="1.1" xmlns="http://www.w3.org/2000/svg" xmlns:xlink="http://www.w3.org/1999/xlink">
    <title>Path</title>
    <g id="Page-1" stroke="none" stroke-width="1" fill="none" fill-rule="evenodd" stroke-linecap="round" stroke-linejoin="round">
        <g id="Desktop-HD" transform="translate(-638.000000, -2440.000000)" stroke="#000000" stroke-width="1.09064584">
            <g id="helloStroke" transform="translate(639.000000, 2441.000000)">
                <path class="squiggle svg-elem-1" d="M-9.23705556e-14,10.914121 C-9.23705556e-14,10.914121 4.97957141,7.90058897 6.66357378,4.64303586 C7.40848027,3.20254084 8.0429351,0.231134567 6.40311338,0.00663516482 C4.02660484,-0.319582502 3.53137046,11.4915519 3.53137046,11.4915519 C3.53137046,11.4915519 4.0635933,5.19940394 7.07301549,5.97410668 C9.70998444,6.65274218 6.25567327,10.3284704 8.66660163,11.411924 C9.9750684,12.0001433 12.0916303,10.9978588 13.7021695,9.53681459 C14.787678,8.55199684 15.6820795,6.32241468 14.0006458,5.76039558 C11.0215336,4.76530327 9.96941738,11.9554489 15.1015662,11.4715165 C19.968631,11.0127569 23.6469279,0.722772846 21.1183557,0.0646864976 C18.7880827,-0.540999532 16.360715,10.7235277 20.3868061,11.6184429 C24.3656342,12.5035973 29.7947181,1.32383532 27.0760663,0.0821532703 C24.5998944,-1.04907713 22.2012956,11.2285229 26.2535868,11.5269992 C30.2098108,11.8177696 29.3734607,5.74498373 32.295549,5.70645408 C36.4603468,5.65148512 34.9278944,11.5223757 32.1722541,11.5213482 C29.868695,11.5208345 29.2666051,8.44360011 30.6084642,6.75959773 C31.9333703,5.09665822 33.8131033,5.68128138 34.5117742,6.22788862 C35.8608255,7.28462837 37.5155454,5.32115762 37.5155454,5.32115762" id="Path"></path>
            </g>
        </g>
    </g>
</svg>